<?xml version="1.0" encoding="UTF-8"?>
<svg id="Layer_1" data-name="Layer 1" xmlns="http://www.w3.org/2000/svg" viewBox="0 0 412.68 467.1">
  <defs>
    <style>
      .cls-1 {
        stroke-width: 14px;
      }

      .cls-1, .cls-2, .cls-3, .cls-4, .cls-5, .cls-6 {
        fill: none;
        stroke-linecap: round;
        stroke-miterlimit: 10;
      }

      .cls-1, .cls-4 {
        stroke: #8b75a8;
      }

      .cls-7 {
        fill: #352078;
      }

      .cls-7, .cls-8 {
        opacity: .18;
      }

      .cls-7, .cls-8, .cls-9, .cls-10, .cls-11, .cls-12, .cls-13, .cls-14, .cls-15, .cls-16, .cls-17, .cls-18, .cls-19, .cls-20, .cls-21, .cls-22, .cls-23, .cls-24, .cls-25 {
        stroke-width: 0px;
      }

      .cls-8, .cls-23 {
        fill: #fff;
      }

      .cls-9 {
        opacity: .1;
      }

      .cls-2, .cls-6 {
        stroke: #bcb4cb;
      }

      .cls-10 {
        fill: #bcb4cb;
      }

      .cls-10, .cls-6 {
        opacity: .47;
      }

      .cls-11, .cls-12 {
        opacity: .15;
      }

      .cls-11, .cls-13, .cls-16 {
        fill: #3a200a;
      }

      .cls-12 {
        fill: #938ba8;
      }

      .cls-3 {
        stroke-width: 4.33px;
      }

      .cls-3, .cls-5 {
        stroke: #644c8c;
      }

      .cls-26, .cls-13 {
        opacity: .6;
      }

      .cls-4 {
        stroke-width: 12.12px;
      }

      .cls-5 {
        stroke-width: 5px;
      }

      .cls-14 {
        fill: #5f3c84;
      }

      .cls-15 {
        fill: #828686;
      }

      .cls-17 {
        fill: #cba8d8;
      }

      .cls-18 {
        fill: #b24e00;
      }

      .cls-19 {
        fill: #6b5290;
      }

      .cls-20 {
        fill: #8b75a8;
      }

      .cls-21 {
        fill: #ff7b00;
      }

      .cls-22 {
        fill: #994500;
      }

      .cls-24 {
        fill: #e3dde8;
      }

      .cls-6 {
        stroke-width: 2px;
      }

      .cls-25 {
        opacity: .2;
      }
    </style>
  </defs>
  <path id="shadow" class="cls-11" d="m258.78,379.81c-23.9,0-45.49,3.01-61,7.85-11.86-2.12-25.35-3.33-39.67-3.33-47.2,0-85.47,13.05-85.47,29.14,0,.6.07,1.19.17,1.78-39.11,2.4-68.57,12.98-68.57,25.67,0,14.46,38.27,26.18,85.47,26.18s83.48-11.13,85.38-25.07c21.6-1.48,40.23-5.75,52.59-11.65,9.64,1.15,20.12,1.8,31.1,1.8,47.2,0,85.47-11.72,85.47-26.18s-38.27-26.18-85.47-26.18Z"/>
  <path class="cls-21" d="m252.39,272.47c-4.07-8.04-26.85,9.52-45.08,34.8-18.23,25.28-38.65,76.92-36.36,86.24-.4,9.68,22.6,18.49,51.37,19.66,77.07,3.15,92.65-17.08,30.07-140.71Z"/>
  <path class="cls-9" d="m252.39,272.47c-4.07-8.04-26.85,9.52-45.08,34.8-18.23,25.28-38.65,76.92-36.36,86.24-.4,9.68,22.6,18.49,51.37,19.66,77.07,3.15,92.65-17.08,30.07-140.71Z"/>
  <g id="Arm">
    <path class="cls-21" d="m306.83,207.31c-.27,2.98-.74,5.71-1.39,8.21-5.01,19.32-20.42,24.81-32.95,25.91-8.87.79-16.3-.63-17.56-.89-.13-.03-.19-.04-.19-.04,1.38-29.73-5.23-51.83-9.7-63.1-2.17-5.47-3.83-8.39-3.83-8.39,1.75-8.73,5.65-12.6,10.13-13.96.14-.05.29-.09.43-.12,6.24-1.66,13.47,1.34,17.53,2.85,19.16,7.08,39.44,28.47,37.53,49.53Z"/>
    <path class="cls-9" d="m306.83,207.31c-.27,2.98-.74,5.71-1.39,8.21-5.01,19.32-20.42,24.81-32.95,25.91-8.87.79-16.3-.63-17.56-.89-.13-.03-.19-.04-.19-.04,1.38-29.73-5.23-51.83-9.7-63.1-2.17-5.47-3.83-8.39-3.83-8.39,1.75-8.73,5.65-12.6,10.13-13.96.14-.05.29-.09.43-.12,6.24-1.66,13.47,1.34,17.53,2.85,19.16,7.08,39.44,28.47,37.53,49.53Z"/>
  </g>
  <path class="cls-21" d="m275.82,285.01c-.42,100.34-49.32,136.38-124.16,139.55-56.12,2.37-97.86-26.4-115.92-62.92-.18-.35-.36-.71-.53-1.07-1.01-2.1-1.95-4.22-2.8-6.37-2.62-6.58-4.49-13.37-5.55-20.21-.96-6.19-1.27-12.43-.87-18.63,2.59-36.21,35.83-76.65,28.58-105.49-5.87-23.36-20.94-54.68-7.66-74.42,18.59-27.64,33.31-33.59,71.48-38.78,9.15-1.24,21.86-2.04,37.52-6.52,1.17-.34,2.36-.69,3.59-1.07,13.28-4.07,21-7.42,28.62-8.66,10.9-1.78,26.63-3.06,36.09,8.66,10.91,13.51,16.7,32.13,26,61.68,14.31,45.48,25.74,99.57,25.59,134.25Z"/>
  <path class="cls-9" d="m275.82,285.01c-.42,100.34-49.32,136.38-124.16,139.55-56.12,2.37-97.86-26.4-115.92-62.92,34.08,4.11,71.92-16.09,71.92-16.09,48.12,23.64,118.07-3.56,139.21-80.92,17.17-62.82-.96-127.57,3.35-113.87,14.31,45.48,25.74,99.57,25.59,134.25Z"/>
  <path class="cls-21" d="m36.3,453.04c-2.01.14-3.92.19-5.73.16C-.06,452.67-1.9,428.42.95,404.03c.93-7.96,2.35-15.92,3.44-23.09,1.35-6.73,3.08-13.47,5.08-19.96,30.93-92.2,70.18-82.18,98.19-15.43,10.76,27.92,15.48,59.89,17.29,77.64,1,9.8-25.18,29.85-88.65,29.85Z"/>
  <path class="cls-9" d="m36.3,453.04c-1.88,0-3.79.06-5.73.16C-.06,452.67-1.9,428.42.95,404.03c13.87,54.45,97.25,3.58,111.71-49.95,6.4,15.41,5.81,15.76,5.81,15.75,9.09,28.01,4.67,35.61,6.48,53.36,1,9.8-25.18,29.85-88.65,29.85Z"/>
  <path class="cls-22" d="m84.25,322.73c3.57,2.08,7.12,4.32,10.37,6.9,2.21,1.79,4.59,4.05,6.57,6.12,4.85,5.28,8.97,11.4,12.11,17.84.85,1.86,2.29,4.65,2.94,6.57,4.47,11.02,6.99,22.94,8.22,34.73.32,2.06.4,5.02.54,7.1.48,6.83.32,14.5-.05,21.29-.9-6.76-1.46-14.28-2.56-21.03-.94-6.93-2.12-13.88-3.78-20.67-.55-2.18-.97-4.62-1.66-6.77-3.7-13.29-9.17-26.46-17.74-37.35-1.67-2.12-3.9-4.58-5.76-6.52-2.85-2.83-6.14-5.58-9.21-8.2h0Z"/>
  <path class="cls-9" d="m171.34,197.8c1.92-7.12,19.39,32.34,7.14,58.55-25.25,54-79.81,40.74-102.54,20.14,8.06,1.34,91.23-63.28,95.4-78.7Z"/>
  <g id="Thumb">
    <path id="R_thumb" data-name="R thumb" class="cls-21" d="m133.73,213.69s-6.97-18.11-5.19-28.57c.76-4.48,6.41-5.91,9.12-2.26,2.33,3.14,4.5,8.77,4.5,18.82l-8.43,12Z"/>
    <path class="cls-22" d="m133.15,206.08c-4.86-6.35-10.69-15.55-5.46-23.36,2.46-3.37,7.84-3.72,10.58-.66,1.2,1.42,1.74,3.06,1.89,4.68-1.68-2.33-3.91-4.34-6.78-3.59-1.83.46-2.77,1.69-3.28,3.43-1.86,6.42,2.18,12.94,3.04,19.49h0Z"/>
  </g>
  <path class="cls-21" d="m174.4,239.56c-8.99,23.06-33.65,38.26-38.89,41.2-19.69,11.04-40.44,9.49-52.38,2.39-2.05-1.21-3.84-2.59-5.32-4.1-2.57-2.62-4.68-5.13-6.38-7.54-1.94-2.74-3.37-5.36-4.39-7.86-2.85-6.94-2.58-12.93-1.49-18.08,3.04-14.37,14.11-20.89,19.97-22.08,4.32-.88,13.17-1.99,19.27-2.76,12.92-1.62,27.41-5.89,33.19-25.08,2.61-8.68,4.03-15.56,7.66-19.49,2.09-2.3,4.96-3.59,9.25-3.66,2.92-.04,5.56,1.19,7.86,3.02,4.94,3.94,8.3,10.63,9.39,13.2.4.99.79,2.03,1.17,3.12,4.47,12.69,7.5,31.31,1.09,47.72Z"/>
  <path class="cls-9" d="m178.77,215.4c.21,1.17-1.19,1.91-2.34,2.21-8.15,2.17-11.96,9.06-17.42,14.7-12.51,12.91-29.3,21.19-46.33,26.37-8.59,2.62-17.55,4.65-26.49,5.57-3.01.31-17.63,2.6-19.15-.61,21.81,46.03,84.26,24.45,107.36-24.09,1.25-2.63,1.58-5.48,2.22-8.32,1.2-5.3,3.26-10.51,2.15-15.84Z"/>
  <path class="cls-22" d="m133.15,206.08c-1.8,4.1-4.69,7.73-8.25,10.55-5.82,3.46-12.5,5.13-19.14,5.99-6.15.8-13.07,1.6-19.08,2.68-1.86.3-3.82,1.07-5.49,1.94-8.56,4.48-13.8,13.86-14.32,23.38-.5,4.69-.72,9.08.59,14.01-2.49-3.59-4.14-7.94-4.67-12.56.07-13.46,8.82-27.3,22.33-30.54,8.62-1.73,17.72-2.18,26.29-3.96,4.05-.91,7.95-2.29,11.4-4.4,3.84-1.61,7.37-4.15,10.34-7.09h0Z"/>
  <path class="cls-22" d="m95,287.65c8.26.56,16.57-.99,24.44-3.35,4.42-1.16,8.84-2.4,13.01-4.31,16.56-8.25,33.88-24.55,40.42-42.02,5.92-16.28,3.26-37.8-4.87-52.99-2.7-4.58-7.13-10.09-12.45-10.45-3.7-.47-7.51.39-9.99,3.43-2.6,3.08-4.08,7.16-5.61,10.91,1.51-8.4,3.81-17.31,14.05-18.24,7.89-.9,13.78,6.27,17.43,12.31,8.71,16.11,11.54,38.99,5.18,56.41-7.01,18.2-21.88,32.06-38.16,42.07-5.63,3.13-11.85,5.38-18.13,6.74-8.38,1.29-17.11,1.64-25.33-.51h0Z"/>
  <path class="cls-22" d="m258.78,183.46c4.02,9.19,7.14,18.6,9.74,28.26,2.51,9.67,4.26,19.66,3.98,29.7-2.54-8.3-5.55-20.23-7.85-28.69-2.48-9.63-4.91-19.31-5.87-29.28h0Z"/>
  <path class="cls-21" d="m302.74,195.65c-.49,4.25-4.04,2.35-10.53,1.59-2.45-.3-5.32-.43-8.61,0-20.73,2.69-31.66-7.07-38.68-18.73-5.56-7.36-9.74-25.62-3.76-34.16,1.19-1.7,2.78-3.01,4.83-3.78,5.61,1.57,9.22,7.87,14.74,10.15,25.33,14.4,34.76,25.11,41.55,41.94.38.94.58,1.97.46,2.99Z"/>
  <path class="cls-22" d="m260.73,150.72c-4.75-1.11-8.53-4.77-12.73-6.97-4.24-1.71-6.46,3.15-7.22,6.7-.93,4.44-.55,9.31.44,13.95,1.02,4.53,2.64,9.29,5.36,13,1.93,3.2,4.14,6.21,6.72,8.81,3.18,3.24,6.96,5.77,11.18,7.36,2.55,1.04,5.22,1.28,7.86,2.09,3.58.92,7.37,1.36,11.26,1.59-4.16,1.27-8.68,2.01-13.17,1.91-7.52-.9-14.69-4.76-19.96-10.13-2.84-2.86-5.21-6.1-7.26-9.48-1.04-1.29-2.87-4.7-3.65-6.86-2.76-7.33-4.22-15.29-2.69-23.09,1.15-6.02,5.76-12.33,12.72-9.55,1.52.53,2.4,1.56,3.39,2.64,2.57,2.79,4.56,5.9,7.76,8.04h0Z"/>
  <path class="cls-22" d="m274.09,318.73c-1.65,28.28-12.04,57.3-33.62,76.47-8.45,7.3-18.22,13.23-28.68,16.84,14.96-8.24,28.24-19.09,38.07-33,12.86-17.84,19.37-39.02,24.24-60.31h0Z"/>
  <g id="face">
    <path class="cls-23" d="m134.62,172.66c5.19-2.58,12.97-4.29,21.7-4.42,11.19-.17,20.9,2.3,25.61,6.04,1.47-6.08.63-13.21-2.75-19.98-6.61-13.23-21.18-21.58-33.56-18.91-13.36,2.89-19.79,17.52-13.15,33.02.63,1.48,1.35,2.89,2.15,4.24Z"/>
    <path class="cls-23" d="m233.65,144.54c2.36-2.02,4.88-2.97,7.37-3.18-.41-1.36-.93-2.75-1.55-4.13-4.96-11.1-15.14-19.26-23.31-18.45-8.68.85-12.14,11.43-7.09,23.93,3.38,8.38,9.51,15,15.74,18-.32-4.81,2.67-10.88,8.83-16.17Z"/>
    <path class="cls-16" d="m151.89,168.45c1.44-.11,2.92-.18,4.43-.21,9.24-.14,17.47,1.53,22.72,4.21,2.71-4.21,2.9-10.17.1-15.82-4.11-8.3-13.42-13.36-21.2-11.39-8.16,2.07-11.8,11.11-7.66,20.28.46,1.03,1.01,1.99,1.61,2.91Z"/>
    <path class="cls-23" d="m152.95,158.64c-.82-2.98.47-5.68,2.83-6.05s4.82,1.65,5.65,4.52c.83,2.89-.33,5.64-2.66,6.11s-5-1.57-5.82-4.58Z"/>
    <path class="cls-13" d="m122.33,144.75c-3.86-5.22-4.92-12.54-2.01-18.53,5.18-10.81,19.82-11.64,28.87-5.58-2.07.24-4.02.34-5.93.54-5.03.49-10.77,1.58-14.48,4.62-5.69,4.47-6.24,12.11-6.45,18.95h0Z"/>
    <path class="cls-16" d="m233.65,144.54c1.37-1.17,2.79-1.99,4.23-2.5-.26-.98-.59-1.97-1-2.96-3.24-7.86-10.23-13.51-15.86-12.71-5.87.82-8.19,8.28-4.92,16.78,2.07,5.37,5.8,9.67,9.72,11.82,1.34-3.44,3.95-7.09,7.83-10.41Z"/>
    <path class="cls-23" d="m218.22,139.94c-.81-2.61.11-4.81,2.02-4.94,1.88-.13,4.05,1.81,4.86,4.34.82,2.55-.02,4.79-1.9,4.99s-4.16-1.77-4.98-4.4Z"/>
    <path class="cls-13" d="m230.92,117.03c-4.75-3.17-8.66-6.57-13.41-9.08-2.13-1.12-4.23-1.97-6.48-2.29-2.6-.41-5.08.07-7.78.92,2.73-6.9,11.45-7.72,17.31-4.39,5.6,3.08,9.62,8.51,10.36,14.84h0Z"/>
    <g>
      <g class="cls-26">
        <path class="cls-16" d="m232.32,209.42c-8.89,6.88-22.49.8-25.1-.25-8.98-3.6-23.2-20.21-23.2-20.21,42.11.63,49.14-11.2,49.14-11.2-4.99,18.82,2.85,28.79-.85,31.66Z"/>
        <path class="cls-16" d="m233.17,177.77c-8.65,16.03,2.85,28.79-.85,31.66-2.32,1.79-4.96,2.71-7.64,3.06-7.6.99-15.53-2.53-17.46-3.31-8.98-3.6-23.2-20.21-23.2-20.21,9.25.14,16.8-.32,22.96-1.13,21.89-2.87,26.18-10.07,26.18-10.07m-.18-1.38c-.4.05-.78.28-1.01.65-.09.13-4.6,6.72-25.18,9.42-6.64.87-14.3,1.25-22.76,1.12-.07,0-.14,0-.2.01-.47.06-.87.35-1.08.79-.23.49-.15,1.08.2,1.49.59.69,14.55,16.91,23.73,20.59.12.05.25.1.41.17,2.54,1.04,10.25,4.21,17.75,3.23,3.19-.42,5.99-1.54,8.31-3.34,2.2-1.7,1.66-4.63.91-8.69-.96-5.17-4.12-13.36.44-23.71.18-.67-.17-1.37-.81-1.64-.23-.1-.48-.13-.72-.1h0Zm.36,2.76h0s0,0,0,0h0Z"/>
      </g>
      <path class="cls-18" d="m232.32,209.42c-6.99,4.94-20.69,2.03-29.2-2.59,14.95-15.06,27.68,1,29.2,2.59Z"/>
    </g>
  </g>
  <g>
    <path class="cls-20" d="m267.98,97.43c.02-.57,54-67.51,54-67.51l41.32,53.77-73.71,39.01-21.62-25.27Z"/>
    <polygon class="cls-7" points="358.93 82.41 289.16 121.48 286.61 117.26 354.22 71.63 358.93 82.41"/>
    <polygon class="cls-12" points="321.79 48.26 272.99 102.07 269.72 98.65 319.18 37.2 321.79 48.26"/>
    <path class="cls-19" d="m404.47,60.03l-16.14,11.42-6.4,4.53-4.57,3.23-4.74,3.35c-.92.43-1.9.78-2.92,1.04-1,.26-2.04.46-3.11.57-4.41.49-9.41-.25-14.56-2.14-5.98-2.18-12.16-5.91-17.85-11.05-8.4-7.59-14.1-16.78-16.38-25.32,0,0,0-.01-.01-.02-1.3-4.87-1.49-9.53-.44-13.55.13-.5.28-1,.45-1.48.59-1.68,1.42-3.24,2.51-4.61.66-.84,1.4-1.58,2.19-2.25.02-.01.07-.06.13-.1.56-.46,1.15-.89,1.77-1.26.02,0,.04-.02.06-.04,2.02-1.42,5.39-3.79,9.15-6.42,1.74-1.23,3.57-2.51,5.39-3.78,7.61-5.33,14.98-10.49,14.98-10.49l50.49,58.37Z"/>
    <path class="cls-25" d="m392.82,66.95s-13.87,9.11-26.23,17.22c-4.41.49-9.41-.25-14.56-2.14l29.44-23.22,11.35,8.14Z"/>
    <path class="cls-24" d="m405.87,58.56c-2.18,2.66-5.08,4.41-8.48,5.31-9.83,2.61-23.73-1.96-35.52-12.62-13.2-11.93-19.72-27.82-16.82-38.89.58-2.25,1.56-4.31,2.96-6.09,8.3-10.59,28.11-7.45,44.19,7.08,16.09,14.54,22.18,34.81,13.68,45.21Z"/>
    <path class="cls-14" d="m401.3,52.64c-1.8,2.2-4.2,3.65-7.02,4.39,2.39-9.14-2.96-22.27-13.93-32.18-9.8-8.86-21.27-12.6-29.38-10.44.48-1.86,1.29-3.57,2.45-5.04,6.87-8.76,23.26-6.16,36.56,5.86,13.31,12.03,18.35,28.8,11.32,37.41Z"/>
    <path class="cls-17" d="m394.28,57.03c-2.57.68-5.47.77-8.55.29-2.27-.35-4.64-1.01-7.04-1.96-1.26-.5-2.53-1.08-3.79-1.74-3.4-1.78-6.8-4.13-10.01-7.03-1.01-.91-1.97-1.85-2.88-2.82-8.97-9.45-13.22-21.05-11.04-29.36,2.63-.7,5.62-.78,8.79-.26,4.21.68,8.74,2.42,13.19,5.14,1.82,1.11,3.63,2.39,5.39,3.84.68.54,1.35,1.12,2.01,1.72,1.71,1.54,3.27,3.16,4.7,4.83,7.75,9.07,11.25,19.63,9.23,27.35Z"/>
    <path class="cls-15" d="m377.36,79.21c-1.36,1.42-2.95,2.54-4.74,3.35l4.74-3.35Z"/>
    <path class="cls-19" d="m302.1,116.8c-2.8,2.08-13.34,12.76-16.26,14.13-.84.39-1.69.7-2.54.93h-.01c-3.78,1.04-7.74.62-11.44-.79-6.41-2.43-12.05-7.79-14.69-13.62-1.16-2.57-1.74-5.23-1.54-7.78.18-2.25.98-4.42,2.53-6.34,3.06-2.82,10.3-9.23,13.59-12.21-.3.8-.48,1.62-.55,2.46-.19,2.06.26,4.21,1.18,6.34,2.96,6.83,10.79,13.43,18.31,15.89,3.78,1.25,7.48,1.44,10.44.09l.05.05.93.85Z"/>
    <path class="cls-25" d="m301.17,115.95c-2.93,2.61-10.7,9.53-17.87,15.91h-.01c-3.78,1.04-7.74.62-11.44-.79l18.83-15.26c3.78,1.25,7.48,1.44,10.44.09l.05.05Z"/>
    <path class="cls-2" d="m301.83,116.13c-10.56,6.57-34.09-12.82-29.55-25.01"/>
    <path class="cls-6" d="m293.61,124.44c-10.89,6.78-35.15-13.22-30.47-25.79"/>
    <path class="cls-10" d="m388.33,71.45l-6.4,4.53c-12.27-.5-25.12-8.09-34.11-17.3-10.39-10.64-19.03-27.03-14.21-42.75,1.74-1.23,3.57-2.51,5.39-3.78.08.4.04.83-.15,1.23-7.14,15.11,1.43,31.87,11.82,42.52,11.62,11.89,26.41,17.83,37.66,15.55Z"/>
    <path class="cls-12" d="m346.23,18.16s-29.21,23.7-29.22,23.69c-1.3-4.87-.33-6.13.35-9.76.09-.51.28-1,.45-1.48l27.86-20.2.56,7.75Z"/>
    <path class="cls-12" d="m272.91,99.3s-.19.22-.54.62c-2.16,2.49-10.34,11.92-15.21,17.53-1.16-2.57-1.74-5.23-1.54-7.78l15.57-16.09.22-.23,1.5,5.95Z"/>
    <path class="cls-8" d="m374.9,53.62c-3.4-1.78-6.8-4.13-10.01-7.03-1.01-.91-1.97-1.85-2.88-2.82,1.58-9.13-.87-23.02-2.25-29.62,4.21.68,8.74,2.42,13.19,5.14,2.12,9.54,2.17,24.97,1.95,34.33Z"/>
    <path class="cls-8" d="m385.73,57.32c-2.27-.35-4.64-1.01-7.04-1.96.04-.5.11-1.02.2-1.56,1.34-8.04.24-22.62-.55-30.67.68.54,1.35,1.12,2.01,1.72,1.71,1.54,3.27,3.16,4.7,4.83.66,8.33.74,19.43.68,27.64Z"/>
  </g>
  <g>
    <path class="cls-20" d="m192.42,104.56c-.02-.57,49.01-71.22,49.01-71.22l45.08,50.66-70.71,44.21-23.38-23.66Z"/>
    <polygon class="cls-7" points="282.06 83.05 215.28 127.03 212.43 123.01 276.58 72.63 282.06 83.05"/>
    <polygon class="cls-12" points="242.55 51.66 197.76 108.84 194.25 105.66 239.16 40.81 242.55 51.66"/>
    <path class="cls-19" d="m325.87,57.45l-15.28,12.55-6.06,4.98-4.33,3.55-4.49,3.68c-.89.5-1.84.91-2.84,1.25-.98.33-2,.61-3.06.79-4.36.81-9.4.43-14.68-1.09-6.12-1.74-12.55-5.02-18.6-9.74-8.92-6.97-15.27-15.72-18.16-24.08,0,0,0,0-.01-.02-1.65-4.76-2.17-9.4-1.41-13.48.09-.51.21-1.02.34-1.51.47-1.72,1.18-3.33,2.17-4.78.6-.89,1.28-1.68,2.02-2.4.02-.01.07-.06.12-.11.53-.5,1.08-.97,1.67-1.38.02-.01.04-.02.06-.04,1.91-1.56,5.1-4.17,8.66-7.06,1.65-1.35,3.38-2.76,5.1-4.16,7.21-5.86,14.19-11.54,14.19-11.54l54.56,54.59Z"/>
    <path class="cls-25" d="m314.75,65.19s-13.18,10.08-24.92,19.06c-4.36.81-9.4.43-14.68-1.09l27.69-25.28,11.91,7.3Z"/>
    <path class="cls-24" d="m327.16,55.89c-1.98,2.81-4.75,4.77-8.08,5.9-9.61,3.31-23.8-.25-36.34-10.03-14.02-10.95-21.67-26.33-19.58-37.58.42-2.28,1.24-4.42,2.52-6.29,7.52-11.16,27.5-9.45,44.58,3.89,17.09,13.35,24.62,33.12,16.9,44.11Z"/>
    <path class="cls-14" d="m322.18,50.31c-1.64,2.32-3.93,3.94-6.69,4.88,1.73-9.29-4.55-22-16.21-31.09-10.41-8.13-22.12-11.04-30.05-8.3.34-1.89,1.03-3.65,2.08-5.2,6.22-9.23,22.76-7.82,36.89,3.22,14.14,11.04,20.37,27.41,13.98,36.5Z"/>
    <path class="cls-17" d="m315.49,55.19c-2.51.86-5.4,1.16-8.51.9-2.29-.19-4.7-.67-7.16-1.45-1.29-.41-2.6-.9-3.91-1.46-3.52-1.53-7.08-3.63-10.49-6.29-1.07-.83-2.1-1.7-3.08-2.61-9.63-8.78-14.7-20.04-13.12-28.49,2.57-.89,5.55-1.18,8.75-.89,4.25.38,8.89,1.79,13.53,4.18,1.9.98,3.79,2.12,5.65,3.44.72.49,1.43,1.02,2.13,1.57,1.82,1.41,3.49,2.92,5.04,4.48,8.38,8.49,12.63,18.77,11.17,26.62Z"/>
    <path class="cls-15" d="m300.21,78.53c-1.25,1.51-2.76,2.75-4.49,3.68l4.49-3.68Z"/>
    <path class="cls-19" d="m227.85,121.44c-2.64,2.28-12.39,13.69-15.2,15.26-.81.45-1.64.82-2.47,1.11h0c-3.7,1.31-7.68,1.18-11.47.04-6.57-1.96-12.58-6.9-15.63-12.53-1.34-2.48-2.11-5.09-2.1-7.65.02-2.26.66-4.48,2.07-6.51,2.85-3.03,9.61-9.95,12.68-13.16-.24.82-.36,1.65-.37,2.49-.04,2.07.56,4.18,1.63,6.24,3.44,6.6,11.73,12.62,19.41,14.53,3.86.97,7.56.9,10.42-.66l.05.05.99.78Z"/>
    <path class="cls-25" d="m226.86,120.65c-2.73,2.81-9.99,10.27-16.68,17.15h0c-3.7,1.31-7.68,1.18-11.47.04l17.68-16.57c3.86.97,7.56.9,10.42-.66l.05.05Z"/>
    <path class="cls-2" d="m227.53,120.79c-10.06,7.31-34.92-10.33-31.27-22.82"/>
    <path class="cls-6" d="m219.93,129.67c-10.38,7.54-36.01-10.66-32.25-23.53"/>
    <path class="cls-10" d="m310.6,70l-6.06,4.98c-12.27.38-25.64-6.26-35.27-14.8-11.13-9.87-20.92-25.59-17.25-41.62,1.65-1.35,3.38-2.76,5.1-4.16.11.39.1.82-.06,1.24-6.03,15.58,3.72,31.68,14.85,41.56,12.45,11.02,27.62,15.88,38.68,12.8Z"/>
    <path class="cls-12" d="m264.76,19.88s-27.43,25.74-27.44,25.73c-1.65-4.76-.77-6.09-.35-9.76.06-.51.21-1.02.34-1.51l26.34-22.15,1.12,7.69Z"/>
    <path class="cls-12" d="m197.48,106.08s-.17.23-.49.66c-1.98,2.64-9.46,12.63-13.91,18.58-1.34-2.48-2.11-5.09-2.1-7.65l14.37-17.17.2-.25,1.92,5.83Z"/>
    <path class="cls-8" d="m295.92,53.18c-3.52-1.53-7.08-3.63-10.49-6.29-1.07-.83-2.1-1.7-3.08-2.61.92-9.22-2.52-22.9-4.37-29.38,4.25.38,8.89,1.79,13.53,4.18,2.8,9.36,3.96,24.75,4.41,34.1Z"/>
    <path class="cls-8" d="m306.99,56.1c-2.29-.19-4.7-.67-7.16-1.45,0-.5.04-1.03.09-1.57.76-8.12-1.39-22.58-2.75-30.55.72.49,1.43,1.02,2.13,1.57,1.82,1.41,3.49,2.92,5.04,4.48,1.26,8.26,2.14,19.33,2.67,27.52Z"/>
  </g>
  <polygon class="cls-19" points="239.47 112.23 250.56 124.33 280.92 93.35 264.25 91.12 239.47 112.23"/>
  <polyline class="cls-20" points="268.95 161.35 267.98 157.61 255.62 109.67 269.23 103.54 280.92 155.97"/>
  <path class="cls-20" d="m293.61,152.93l-37.99,3.04s-8,4.81-.04,14.58c7.96,9.76,39.37-4.04,39.37-4.04,0,0,2.89-13.92-1.34-13.58Z"/>
  <polygon class="cls-19" points="262.31 103.12 272.55 156.88 262.89 156.47 255.59 108.68 262.31 103.12"/>
  <path class="cls-19" d="m263.07,163.04c0,3.17-1.89,5.78-4.23,5.82s-4.22-2.49-4.22-5.65,1.89-5.77,4.22-5.82,4.23,2.48,4.23,5.65Z"/>
  <g>
    <line class="cls-1" x1="268.95" y1="178.84" x2="152.04" y2="456.37"/>
    <line class="cls-5" x1="270.95" y1="181.84" x2="154.04" y2="459.37"/>
    <polygon class="cls-20" points="200.89 367.36 200.84 367.5 194.25 386.71 170.25 378.52 177.26 363.44 178.11 363.58 178.12 363.58 200.89 367.36"/>
    <path class="cls-19" d="m200.84,367.5l-6.59,19.21-24-8.19c27.43,3.51,18.12-8.16,18.12-8.16l-10.25-6.78c6.96,1.67,17.68,3.23,22.72,3.92Z"/>
  </g>
  <g>
    <line class="cls-1" x1="288.77" y1="177.34" x2="405.68" y2="454.87"/>
    <line class="cls-5" x1="286.77" y1="180.34" x2="403.68" y2="457.87"/>
    <polygon class="cls-20" points="356.84 365.86 356.89 366 363.48 385.21 387.48 377.02 380.47 361.94 379.62 362.08 379.61 362.08 356.84 365.86"/>
    <path class="cls-19" d="m356.89,366l6.59,19.21,24-8.19c-27.43,3.51-18.12-8.16-18.12-8.16l10.25-6.78c-6.96,1.67-17.68,3.23-22.72,3.92Z"/>
  </g>
  <g>
    <line class="cls-4" x1="276.33" y1="170.25" x2="335.79" y2="420.24"/>
    <line class="cls-3" x1="274.14" y1="172.44" x2="333.6" y2="422.43"/>
    <polygon class="cls-20" points="306.84 338.26 306.87 338.39 309.67 355.45 331.81 352.44 328.01 338.76 327.25 338.74 327.24 338.74 306.84 338.26"/>
    <path class="cls-19" d="m306.87,338.39l2.81,17.07,22.14-3.01c-24.41-1.44-14.53-9.68-14.53-9.68l9.96-4.02c-6.31.28-15.88-.12-20.38-.35Z"/>
  </g>
  <path class="cls-20" d="m295.73,210.71l-21.74-22.93-9.22,24.32-11.21-8.7h0s-6.31-4.91-6.31-4.91c0,0,10.32-18.96,15.3-24.06,5.44-5.57,28.85-6.93,28.85-6.93,0,0,18.71,24.12,23.24,36.3.04.11.08.22.12.33,4.3,12.08-19.03,6.58-19.03,6.58Z"/>
  <path class="cls-19" d="m295.73,210.71l-21.74-22.93-9.22,24.32-11.21-8.7h0s15.39-23.06,15.39-23.06l11.97,1.17s17.76,21.92,24.24,21.89c3.15-.02,6.69.19,9.48.4.04.11.08.22.12.33,4.3,12.08-19.03,6.58-19.03,6.58Z"/>
  <polygon class="cls-19" points="262.55 174.43 280.92 178.84 291.4 167.5 262.55 174.43"/>
</svg>